<svg id="Flag_of_Greece" xmlns="http://www.w3.org/2000/svg" width="1280" height="854" viewBox="0 0 1280 854">
  <g id="_0d5eafff" data-name="#0d5eafff">
    <path id="Path_53" data-name="Path 53" d="M0,0H189.63q-.015,94.83-.01,189.66-94.8.015-189.62,0Z" fill="#0d5eaf"/>
    <path id="Path_54" data-name="Path 54" d="M284.45,0H1280V94.83q-402.96,0-805.92.01-.03,47.4-.01,94.82-94.8.015-189.62,0Q284.435,94.83,284.45,0Z" fill="#0d5eaf"/>
    <path id="Path_55" data-name="Path 55" d="M474.08,189.67H1280V284.5q-402.96-.015-805.92,0Q474.08,237.085,474.08,189.67Z" fill="#0d5eaf"/>
    <path id="Path_56" data-name="Path 56" d="M0,284.49q94.8.03,189.61.01c.08,63.18-.07,126.37.08,189.55-63.23.27-126.46.04-189.69.12Z" fill="#0d5eaf"/>
    <path id="Path_57" data-name="Path 57" d="M284.48,474.18q-.105-94.845-.02-189.68,94.8.015,189.61.01.015,47.415,0,94.82,402.975.03,805.93.01v94.83Q782.24,474.17,284.48,474.18Z" fill="#0d5eaf"/>
    <path id="Path_58" data-name="Path 58" d="M0,569H1280v94.83H0Z" fill="#0d5eaf"/>
    <path id="Path_59" data-name="Path 59" d="M0,758.67H1280V854H0Z" fill="#0d5eaf"/>
  </g>
  <g id="_ffffffff" data-name="#ffffffff">
    <path id="Path_60" data-name="Path 60" d="M189.63,0h94.82q0,94.83,0,189.66,94.815.015,189.62,0,0-47.415.01-94.82,402.96-.03,805.92-.01v94.84H474.08q-.015,47.415,0,94.83,402.96,0,805.92,0v94.84q-402.96-.015-805.93-.01-.015-47.415,0-94.82-94.815-.03-189.61-.01-.015,94.845.02,189.68,497.76-.045,995.52-.01V569H0V474.17c63.23-.08,126.46.15,189.69-.12-.15-63.18,0-126.37-.08-189.55q-94.8,0-189.61-.01V189.66q94.815,0,189.62,0Q189.635,94.83,189.63,0Z" fill="#fff"/>
    <path id="Path_61" data-name="Path 61" d="M0,663.83H1280v94.84H0Z" fill="#fff"/>
  </g>
</svg>
