<svg xmlns="http://www.w3.org/2000/svg" width="18.081" height="14.465" viewBox="0 0 18.081 14.465">
  <path id="mail-icon" d="M3.808,4a1.794,1.794,0,0,0-1.46.75.659.659,0,0,0,.2.938l7.939,4.948a1.053,1.053,0,0,0,1.116,0L19.5,5.646a.664.664,0,0,0,.17-.971A1.792,1.792,0,0,0,18.273,4ZM19.643,7.694a.425.425,0,0,0-.224.067L11.6,12.693a1.055,1.055,0,0,1-1.116,0L2.66,7.818A.432.432,0,0,0,2,8.185v8.472a1.808,1.808,0,0,0,1.808,1.808H18.273a1.808,1.808,0,0,0,1.808-1.808V8.127A.433.433,0,0,0,19.643,7.694Z" transform="translate(-2 -4)" fill="#434343"/>
</svg>
