<svg xmlns="http://www.w3.org/2000/svg" width="22.121" height="20.057" viewBox="0 0 22.121 20.057">
  <path id="phone-icon" d="M25.392,18.428a15.792,15.792,0,0,1-4.363-.613,1.231,1.231,0,0,0-1.229.279l-2.7,2.451a17.716,17.716,0,0,1-8.111-7.354l2.7-2.451A1.086,1.086,0,0,0,12,9.626a11.1,11.1,0,0,1-.737-4.012A1.179,1.179,0,0,0,10.03,4.5h-4.3A1.179,1.179,0,0,0,4.5,5.614c0,10.474,9.34,18.943,20.892,18.943a1.18,1.18,0,0,0,1.229-1.114v-3.9A1.18,1.18,0,0,0,25.392,18.428Z" transform="translate(-4.5 -4.5)" fill="#434343"/>
</svg>
