<svg xmlns="http://www.w3.org/2000/svg" width="24" height="20" viewBox="0 0 24 20">
  <path id="twitter" d="M21.533,8.365c.015.219.015.438.015.656,0,6.672-4.949,14.359-13.995,14.359A13.645,13.645,0,0,1,0,21.115a9.92,9.92,0,0,0,1.188.062,9.693,9.693,0,0,0,6.107-2.156,4.945,4.945,0,0,1-4.6-3.5,6.049,6.049,0,0,0,.929.078,5.078,5.078,0,0,0,1.294-.172A5.017,5.017,0,0,1,.975,10.475v-.062a4.859,4.859,0,0,0,2.223.641A5.142,5.142,0,0,1,1.675,4.3,13.868,13.868,0,0,0,11.817,9.584,5.84,5.84,0,0,1,11.7,8.428a4.982,4.982,0,0,1,4.919-5.047,4.85,4.85,0,0,1,3.594,1.594A9.536,9.536,0,0,0,23.33,3.756a5.012,5.012,0,0,1-2.162,2.781A9.664,9.664,0,0,0,24,5.756a10.728,10.728,0,0,1-2.467,2.609Z" transform="translate(0 -3.381)"/>
</svg>
